<svg width="150" height="40" viewBox="0 0 150 40" fill="none" xmlns="http://www.w3.org/2000/svg">
<path d="M146.595 32.4955C147.201 32.4955 147.821 32.4542 148.457 32.3716C149.092 32.2615 149.607 32.1514 150 32.0413V34.8077C149.576 35.0004 148.971 35.1518 148.184 35.2619C147.397 35.3996 146.641 35.4684 145.914 35.4684C144.643 35.4684 143.463 35.2757 142.374 34.8903C141.315 34.4774 140.452 33.7755 139.786 32.7845C139.12 31.7936 138.788 30.4034 138.788 28.6142V15.7316H135.338V13.9974L138.833 12.5523L140.422 7.84516H142.782V12.9239H149.818V15.7316H142.782V28.5316C142.782 29.8804 143.13 30.8852 143.826 31.5458C144.553 32.1789 145.476 32.4955 146.595 32.4955Z" fill="#E2DFDF"/>
<path d="M108.049 40C107.816 40 107.601 39.9075 107.401 39.7226C107.202 39.5747 107.103 39.3527 107.103 39.0569C107.103 38.613 107.285 38.0767 107.65 37.448C107.983 36.8192 108.414 36.172 108.945 35.5062C109.444 34.8405 109.925 34.1932 110.39 33.5645C110.855 32.9727 111.187 32.4549 111.386 32.0111L111.834 31.6782H112.033L111.685 32.1221L111.735 32.2885C111.934 32.1405 112.249 31.8262 112.681 31.3454C113.146 30.8276 113.577 30.3098 113.976 29.792C114.408 29.2742 114.657 28.9228 114.723 28.7379L115.371 28.1831C115.437 27.7762 115.703 27.2769 116.167 26.6852C116.666 26.0934 117.23 25.4646 117.861 24.7989C118.492 24.0962 119.089 23.4304 119.654 22.8017C120.252 22.1729 120.667 21.6366 120.899 21.1928L120.401 20.5825C120.036 20.6195 119.737 20.3791 119.505 19.8613C119.305 19.3435 119.139 18.7147 119.006 17.975C118.874 17.2353 118.774 16.5326 118.708 15.8669C118.641 15.2011 118.575 14.7388 118.508 14.4799L118.259 15.0347L117.861 13.5368C117.562 13.5368 117.346 13.3333 117.213 12.9265C117.081 12.5196 116.998 12.0388 116.964 11.484C116.931 10.9293 116.898 10.43 116.865 9.98613C116.832 9.5423 116.732 9.2834 116.566 9.20943L116.416 8.65465L116.616 7.71151L118.558 7.10125L118.359 5.65881L118.409 5.71429C118.475 5.08553 118.342 4.51225 118.01 3.99445C117.711 3.47665 117.462 2.92187 117.263 2.3301C117.263 2.03421 117.379 1.59039 117.612 0.998613C117.844 0.369859 118.127 0.0369874 118.459 0L118.757 0.110959C119.056 1.14656 119.339 2.21914 119.604 3.32871C119.87 4.43828 120.069 5.56634 120.202 6.7129H120.451C120.783 6.7129 120.999 6.80536 121.098 6.99029C121.198 7.17522 121.248 7.43412 121.248 7.76699C121.248 8.80259 121.414 9.85668 121.746 10.9293C122.078 11.9649 122.393 13.0005 122.692 14.0361C123.024 15.0717 123.14 16.1073 123.041 17.1429L123.439 18.1969C123.904 17.7531 124.336 17.2723 124.734 16.7545C125.166 16.2367 125.631 15.7374 126.129 15.2566L126.079 15.2011L127.623 13.5922L127.573 13.5368L127.772 13.2594V13.3148C129.2 11.9464 130.628 10.5039 132.056 8.98752C133.517 7.43412 135.044 6.01017 136.638 4.71567C138.232 3.42117 139.959 2.47804 141.818 1.88627C142.05 2.10818 143.677 0.992352 143.276 1.88627C144.386 1.38696 145.655 2.6236 144.695 3.22581C145.404 3.22581 144.267 4.71567 143.276 4.71567C143.21 5.08553 141.768 5.56634 141.669 5.9362L141.22 5.43689H141.171L140.722 5.99168L140.374 6.04716L140.125 6.32455C139.328 6.62044 138.564 6.95331 137.834 7.32316C137.136 7.65603 136.439 8.06288 135.742 8.54369H135.592C136.123 7.73 136.705 7.04577 137.335 6.49098L137.584 5.99168C137.053 6.02866 136.323 6.43551 135.393 7.21221C134.463 7.9889 133.434 8.96902 132.305 10.1526C131.209 11.2991 130.097 12.5012 128.968 13.7587C127.839 15.0162 126.826 16.1627 125.93 17.1983C125.033 18.2339 124.352 19.0106 123.888 19.5284C124.651 21.4887 125.365 23.19 126.029 24.6325C126.693 26.0749 127.407 27.3879 128.171 28.5714C128.968 29.755 129.881 30.92 130.91 32.0666C131.94 33.2131 133.201 34.4521 134.696 35.7836C135.858 35.9686 136.954 36.246 137.983 36.6158C139.045 36.9857 140.174 37.1706 141.37 37.1706C142.034 37.1706 142.698 37.0966 143.362 36.9487C144.059 36.8007 144.74 36.7453 145.404 36.7822C145.172 37.0781 144.707 37.3555 144.01 37.6144C143.345 37.9103 142.648 38.1507 141.918 38.3356C141.22 38.5206 140.689 38.613 140.324 38.613C140.158 38.613 139.793 38.5576 139.228 38.4466C138.697 38.3726 138.099 38.2617 137.435 38.1137C136.804 37.9658 136.24 37.8178 135.742 37.6699C135.277 37.522 135.011 37.3925 134.945 37.2816L135.094 37.0042C134.961 36.5603 134.662 36.2829 134.198 36.172C133.733 36.061 133.218 35.9871 132.654 35.9501C132.122 35.9501 131.691 35.8761 131.359 35.7282L131.06 35.2843H130.861C130.396 35.2843 129.981 35.1364 129.615 34.8405C129.283 34.5446 128.984 34.2117 128.719 33.8419L127.772 33.9528L127.523 33.3426V32.9542L127.225 32.5659L126.926 33.0097C126.494 32.8248 126.013 32.5289 125.481 32.1221C124.983 31.7522 124.701 31.2714 124.635 30.6796C124.435 30.4577 124.12 29.9584 123.688 29.1817C123.257 28.368 122.825 27.5358 122.393 26.6852C121.962 25.8345 121.646 25.2057 121.447 24.7989L121.746 24.0222L121.497 23.6338L121.347 23.6893L120.949 22.8017C120.584 23.2085 120.003 23.8742 119.206 24.7989C118.409 25.6865 117.529 26.7037 116.566 27.8502C115.636 28.9598 114.723 30.0878 113.827 31.2344C112.963 32.344 112.249 33.3611 111.685 34.2857C111.12 35.2104 110.838 35.8946 110.838 36.3384L110.888 36.4494C111.253 36.3014 111.618 36.1535 111.984 36.0055C112.382 35.8946 112.731 35.6912 113.03 35.3953L113.428 35.2288L113.827 35.2843C114.524 34.5446 115.42 33.9159 116.516 33.3981C117.612 32.8803 118.591 32.344 119.455 31.7892L119.654 31.9001C119.621 31.9371 119.255 32.2145 118.558 32.7323C117.894 33.2501 117.047 33.8789 116.018 34.6186C115.022 35.3953 114.009 36.172 112.98 36.9487C111.984 37.7254 111.137 38.3726 110.44 38.8904C109.709 39.4082 109.327 39.6856 109.294 39.7226C108.862 39.9075 108.447 40 108.049 40ZM113.976 29.1817L114.026 28.9043C114.391 28.4235 114.789 28.0536 115.221 27.7947C115.055 28.0536 114.856 28.294 114.623 28.5159C114.424 28.7379 114.208 28.9598 113.976 29.1817ZM112.532 31.1234L112.283 31.068C112.449 30.883 112.631 30.6611 112.83 30.4022C113.063 30.1063 113.295 29.8844 113.528 29.7365L113.627 29.9584C113.528 30.1063 113.395 30.2358 113.229 30.3467C113.096 30.4577 112.963 30.5687 112.83 30.6796L112.731 30.957L112.532 31.1234Z" fill="#84C807"/>
<path d="M111.175 32.4955C111.781 32.4955 112.401 32.4542 113.036 32.3716C113.672 32.2615 114.186 32.1514 114.58 32.0413V34.8077C114.156 35.0004 113.551 35.1518 112.764 35.2619C111.977 35.3996 111.221 35.4684 110.494 35.4684C109.223 35.4684 108.043 35.2757 106.954 34.8903C105.894 34.4774 105.032 33.7755 104.366 32.7845C103.7 31.7936 103.367 30.4034 103.367 28.6142V15.7316H99.9175V13.9974L103.413 12.5523L105.002 7.84516H107.362V12.9239H114.398V15.7316H107.362V28.5316C107.362 29.8804 107.71 30.8852 108.406 31.5458C109.133 32.1789 110.056 32.4955 111.175 32.4955Z" fill="#E2DFDF"/>
<path d="M86.819 12.5523C89.7848 12.5523 91.9789 13.1441 93.4013 14.3277C94.8236 15.5114 95.5348 17.397 95.5348 19.9845V35.0555H92.6295L91.8578 31.9174H91.6763C90.9802 32.7157 90.2539 33.3901 89.4973 33.9406C88.771 34.4637 87.9236 34.849 86.9552 35.0968C86.0171 35.3445 84.8671 35.4684 83.5053 35.4684C82.0526 35.4684 80.7362 35.2344 79.5559 34.7665C78.4059 34.2985 77.498 33.5828 76.8323 32.6194C76.1665 31.6284 75.8336 30.3897 75.8336 28.9032C75.8336 26.7011 76.7869 25.0082 78.6934 23.8245C80.6 22.6133 83.5355 21.9527 87.5 21.8426L91.6309 21.7187V20.3974C91.6309 18.5531 91.1921 17.2731 90.3144 16.5574C89.4368 15.8417 88.196 15.4839 86.5921 15.4839C85.321 15.4839 84.1105 15.6628 82.9605 16.0206C81.8105 16.351 80.7362 16.7363 79.7375 17.1768L78.5119 14.4516C79.5711 13.9286 80.827 13.4882 82.2796 13.1303C83.7322 12.7449 85.2454 12.5523 86.819 12.5523ZM87.9993 24.3613C84.973 24.4714 82.8697 24.9118 81.6895 25.6826C80.5395 26.4533 79.9645 27.5406 79.9645 28.9445C79.9645 30.1832 80.373 31.0916 81.1901 31.6697C82.0375 32.2477 83.1118 32.5368 84.4131 32.5368C86.471 32.5368 88.1809 32.0275 89.5427 31.009C90.9046 29.963 91.5855 28.3665 91.5855 26.2194V24.2374L87.9993 24.3613Z" fill="#E2DFDF"/>
<path d="M61.3776 12.511C63.4657 12.511 65.2512 12.9239 66.7341 13.7497C68.2473 14.5755 69.3973 15.7454 70.1841 17.2594C71.0012 18.7458 71.4098 20.4938 71.4098 22.5032V24.6916H54.75C54.8105 27.1966 55.5066 29.1097 56.8381 30.431C58.2 31.7247 60.0914 32.3716 62.5124 32.3716C64.0559 32.3716 65.4177 32.2477 66.5979 32C67.8085 31.7247 69.0492 31.3394 70.3203 30.8439V34.0232C69.0795 34.5187 67.8539 34.8766 66.6433 35.0968C65.4328 35.3445 63.9953 35.4684 62.3309 35.4684C60.0309 35.4684 57.9881 35.0417 56.2026 34.1884C54.4474 33.3351 53.0704 32.0688 52.0717 30.3897C51.1033 28.683 50.6191 26.6047 50.6191 24.1548C50.6191 21.7325 51.0579 19.6542 51.9355 17.92C52.8434 16.1858 54.0993 14.8508 55.7033 13.9148C57.3375 12.9789 59.2289 12.511 61.3776 12.511ZM61.3322 15.4839C59.4256 15.4839 57.9125 16.0482 56.7927 17.1768C55.7033 18.2778 55.0526 19.8194 54.8408 21.8013H67.2335C67.2335 20.5351 67.0216 19.434 66.5979 18.4981C66.1743 17.5621 65.5236 16.8327 64.646 16.3097C63.7986 15.7591 62.694 15.4839 61.3322 15.4839Z" fill="#E2DFDF"/>
<path d="M45.4643 12.511C45.9183 12.511 46.4025 12.5385 46.917 12.5935C47.4617 12.6211 47.9308 12.6761 48.3242 12.7587L47.8249 16.1032C47.4314 16.0206 46.9926 15.9518 46.5084 15.8968C46.0545 15.8417 45.6156 15.8142 45.192 15.8142C44.2538 15.8142 43.3611 15.9931 42.5137 16.351C41.6663 16.7088 40.9098 17.2181 40.244 17.8787C39.5782 18.5118 39.0486 19.2826 38.6552 20.191C38.292 21.0994 38.1104 22.1178 38.1104 23.2465V35.0555H34.1157V12.9239H37.3841L37.8381 16.9703H38.0196C38.5341 16.1445 39.1545 15.4013 39.8808 14.7406C40.6071 14.0525 41.4394 13.5157 42.3775 13.1303C43.3157 12.7174 44.3446 12.511 45.4643 12.511Z" fill="#E2DFDF"/>
<path d="M15.7065 19.489H26.9189V33.9406C25.1637 34.4637 23.3933 34.849 21.6078 35.0968C19.8223 35.3445 17.7946 35.4684 15.5249 35.4684C12.1657 35.4684 9.33613 34.8628 7.03614 33.6516C4.73616 32.4129 2.9809 30.6649 1.77038 28.4077C0.590128 26.123 0 23.4254 0 20.3148C0 17.2318 0.665786 14.5617 1.99736 12.3045C3.32893 10.0473 5.2355 8.29936 7.71706 7.06065C10.2289 5.79441 13.2552 5.16129 16.796 5.16129C18.6117 5.16129 20.3216 5.31269 21.9255 5.61548C23.5597 5.91828 25.0729 6.34495 26.465 6.89548L24.9216 10.1161C23.7716 9.64817 22.4703 9.24903 21.0176 8.91871C19.5953 8.58839 18.1124 8.42323 16.569 8.42323C13.9966 8.42323 11.7874 8.90495 9.94139 9.86839C8.09535 10.8318 6.68812 12.2082 5.7197 13.9974C4.75129 15.7591 4.26708 17.8649 4.26708 20.3148C4.26708 22.6546 4.67563 24.7329 5.49273 26.5497C6.34009 28.3389 7.65653 29.7428 9.44205 30.7613C11.2276 31.7523 13.5729 32.2477 16.4782 32.2477C17.4466 32.2477 18.294 32.2202 19.0203 32.1652C19.7769 32.0826 20.4578 31.9862 21.063 31.8761C21.6986 31.766 22.2887 31.6559 22.8334 31.5458V22.7923H15.7065V19.489Z" fill="#E2DFDF"/>
</svg>
